HIERARCHY
ROOT Hips
{
 OFFSET 0.000000 0.000000 0.000000
 CHANNELS 6 Xposition Yposition Zposition Yrotation Xrotation Zrotation
 JOINT Chest
 {
  OFFSET 0.000000 9.585900 0.002600
  CHANNELS 3 Yrotation Xrotation Zrotation
  JOINT Chest2
  {
   OFFSET 0.000000 9.601200 -0.005300
   CHANNELS 3 Yrotation Xrotation Zrotation
   JOINT Chest3
   {
    OFFSET 0.000000 9.561800 0.000000
    CHANNELS 3 Yrotation Xrotation Zrotation
    JOINT Chest4
    {
     OFFSET 0.000000 9.552100 0.000000
     CHANNELS 3 Yrotation Xrotation Zrotation
     JOINT Neck
     {
      OFFSET 0.000000 14.453000 0.000000
      CHANNELS 3 Yrotation Xrotation Zrotation
      JOINT Head
      {
       OFFSET 0.000000 8.936500 -0.011300
       CHANNELS 3 Yrotation Xrotation Zrotation
       End Site
       {
        OFFSET 0.000000 17.073600 -0.006000
       }
      }
     }
     JOINT RightCollar
     {
      OFFSET -2.921100 9.558500 0.000000
      CHANNELS 3 Yrotation Xrotation Zrotation
      JOINT RightShoulder
      {
       OFFSET -13.519700 0.000000 0.000000
       CHANNELS 3 Yrotation Xrotation Zrotation
       JOINT RightElbow
       {
        OFFSET 0.000000 -29.696600 0.000000
        CHANNELS 3 Yrotation Xrotation Zrotation
        JOINT RightWrist
        {
         OFFSET 0.000000 -24.004700 0.000000
         CHANNELS 3 Yrotation Xrotation Zrotation
         End Site
         {
          OFFSET 0.000000 -17.728500 0.000000
         }
        }
       }
      }
     }
     JOINT LeftCollar
     {
      OFFSET 2.921100 9.558500 0.000000
      CHANNELS 3 Yrotation Xrotation Zrotation
      JOINT LeftShoulder
      {
       OFFSET 13.519700 0.000000 0.000000
       CHANNELS 3 Yrotation Xrotation Zrotation
       JOINT LeftElbow
       {
        OFFSET 0.000000 -29.696600 0.000000
        CHANNELS 3 Yrotation Xrotation Zrotation
        JOINT LeftWrist
        {
         OFFSET 0.000000 -24.004700 0.000000
         CHANNELS 3 Yrotation Xrotation Zrotation
         End Site
         {
          OFFSET 0.000000 -17.728500 0.000000
         }
        }
       }
      }
     }
    }
   }
  }
 }
 JOINT RightHip
 {
  OFFSET -7.771700 -0.012900 -0.001300
  CHANNELS 3 Yrotation Xrotation Zrotation
  JOINT RightKnee
  {
   OFFSET 0.000000 -40.869800 0.001200
   CHANNELS 3 Yrotation Xrotation Zrotation
   JOINT RightAnkle
   {
    OFFSET 0.000000 -39.717900 0.002100
    CHANNELS 3 Yrotation Xrotation Zrotation
    JOINT RightToe
    {
     OFFSET 0.000000 -4.965400 11.033500
     CHANNELS 3 Yrotation Xrotation Zrotation
     End Site
     {
      OFFSET 0.000000 -1.423100 5.872300
     }
    }
   }
  }
 }
 JOINT LeftHip
 {
  OFFSET 7.771700 -0.012900 -0.001300
  CHANNELS 3 Yrotation Xrotation Zrotation
  JOINT LeftKnee
  {
   OFFSET 0.000000 -40.869800 0.001200
   CHANNELS 3 Yrotation Xrotation Zrotation
   JOINT LeftAnkle
   {
    OFFSET 0.000000 -39.717900 0.002100
    CHANNELS 3 Yrotation Xrotation Zrotation
    JOINT LeftToe
    {
     OFFSET 0.000000 -4.965400 11.033500
     CHANNELS 3 Yrotation Xrotation Zrotation
     End Site
     {
      OFFSET 0.000000 -1.423100 5.872300
     }
    }
   }
  }
 }
}
MOTION
Frames: 5
Frame Time: 0.008333
-97.174832 57.516156 94.026517 174.953234 -32.778888 -1.463670 3.171074 20.678261 3.421838 0.276936 2.670639 0.372174 0.468020 4.366462 0.588198 2.225206 17.575123 2.712361 -0.140619 12.737665 0.673557 -0.648681 -12.199549 1.241988 3.798636 -2.234144 -0.884011 12.319481 -24.019900 -11.390901 148.634962 -72.459759 -136.494064 11.664753 -20.589914 -52.893940 -7.600077 -3.929879 -2.943568 7.086380 -17.765407 -7.784581 82.815709 -49.208662 -102.581931 7.313547 -17.519475 31.093527 12.083190 -42.980614 -6.703696 -9.650019 68.435466 -8.798991 9.152818 22.956089 8.071627 -0.569311 -16.393435 2.305147 -7.196264 -40.235475 5.189625 29.015017 66.991782 25.732929 -16.828414 4.257424 -2.469071 0.405797 0.414507 0.184525
-97.175958 57.517241 94.027088 174.951542 -32.765228 -1.465690 3.173644 20.664686 3.421380 0.278365 2.671766 0.357075 0.468886 4.365089 0.593907 2.233339 17.573455 2.718868 -0.239665 12.691573 0.593511 -0.705883 -12.219109 1.243443 3.788632 -2.235858 -0.878877 12.264000 -24.005036 -11.383726 148.733709 -72.407549 -136.605717 11.614759 -20.584492 -52.839785 -7.592076 -3.889552 -2.927561 7.282208 -17.712604 -7.752176 83.217107 -49.328419 -103.147199 7.293809 -17.492122 31.084232 12.056391 -42.991386 -6.697972 -9.624167 68.425470 -8.780878 9.146706 22.956565 8.053035 -0.563655 -16.385334 2.312584 -7.222059 -40.251662 5.200591 29.054937 66.994415 25.766417 -16.799814 4.269946 -2.461455 0.376454 0.395494 0.171742
-97.173576 57.518139 94.028191 174.952709 -32.749446 -1.487623 3.174678 20.649800 3.430033 0.282164 2.670528 0.362435 0.472508 4.364917 0.587338 2.239912 17.571210 2.724693 -0.296699 12.664086 0.552096 -0.806545 -12.267074 1.206586 3.758935 -2.236120 -0.882488 12.227288 -23.989247 -11.366384 148.830381 -72.347187 -136.723980 11.610641 -20.575990 -52.831268 -7.580866 -3.846665 -2.908295 7.484770 -17.657081 -7.718280 83.668308 -49.474165 -103.760430 7.272829 -17.471121 31.068014 11.981982 -43.008576 -6.650175 -9.588273 68.407944 -8.764204 9.142203 22.969417 8.024026 -0.548847 -16.383824 2.319989 -7.257304 -40.266635 5.234241 29.056339 66.998964 25.781405 -16.789445 4.271884 -2.480169 0.366525 0.385707 0.170761
-97.174001 57.519343 94.028190 174.956237 -32.739291 -1.491337 3.171086 20.646326 3.409308 0.285089 2.666783 0.372494 0.475025 4.361616 0.587169 2.249413 17.568099 2.722655 -0.359062 12.634930 0.516704 -0.914998 -12.319488 1.165651 3.728575 -2.233977 -0.871815 12.205168 -23.976518 -11.354696 148.906631 -72.298634 -136.820858 11.676679 -20.588294 -52.889889 -7.572646 -3.803060 -2.878731 7.695691 -17.594692 -7.680226 84.175130 -49.635941 -104.427345 7.245899 -17.457003 31.056294 11.963795 -43.018243 -6.653240 -9.582975 68.399560 -8.759282 9.150712 22.986019 8.013599 -0.540361 -16.392567 2.322963 -7.278989 -40.277872 5.243767 29.060845 67.004966 25.790420 -16.781819 4.275587 -2.486784 0.359400 0.374786 0.165005
-97.174580 57.520341 94.028239 174.958188 -32.729250 -1.491929 3.168270 20.637293 3.402830 0.286229 2.667478 0.366445 0.476723 4.359467 0.592700 2.261296 17.564954 2.714488 -0.427093 12.603580 0.480707 -1.029890 -12.373985 1.120469 3.683660 -2.217044 -0.876685 12.216074 -23.991514 -11.330867 148.933180 -72.281964 -136.855247 11.721102 -20.601496 -52.943283 -7.575486 -3.779333 -2.854822 7.920450 -17.509401 -7.628090 84.742972 -49.815438 -105.148391 7.209776 -17.447706 31.050789 11.959576 -43.026779 -6.664750 -9.590231 68.392560 -8.759709 9.153167 22.997221 7.999358 -0.530586 -16.396446 2.328324 -7.294641 -40.288442 5.249252 29.062444 67.009108 25.797213 -16.776404 4.278904 -2.493905 0.359808 0.365874 0.160356
